<?xml version="1.0" encoding="UTF-8" standalone="no"?>
<svg
   id="Layer_1"
   data-name="Layer 1"
   viewBox="0 0 268.62158 46.210004"
   version="1.1"
   sodipodi:docname="nf-validation2.svg"
   inkscape:version="1.3 (0e150ed6c4, 2023-07-21)"
   width="268.62158"
   height="46.210003"
   inkscape:export-filename="nf-schema.png"
   inkscape:export-xdpi="96"
   inkscape:export-ydpi="96"
   xmlns:inkscape="http://www.inkscape.org/namespaces/inkscape"
   xmlns:sodipodi="http://sodipodi.sourceforge.net/DTD/sodipodi-0.dtd"
   xmlns="http://www.w3.org/2000/svg"
   xmlns:svg="http://www.w3.org/2000/svg">
  <sodipodi:namedview
     id="namedview9834"
     pagecolor="#ffffff"
     bordercolor="#000000"
     borderopacity="0.25"
     inkscape:showpageshadow="2"
     inkscape:pageopacity="0"
     inkscape:pagecheckerboard="true"
     inkscape:deskcolor="#d1d1d1"
     showgrid="false"
     inkscape:zoom="4.4562067"
     inkscape:cx="167.51916"
     inkscape:cy="82.918057"
     inkscape:window-width="1920"
     inkscape:window-height="1001"
     inkscape:window-x="-9"
     inkscape:window-y="-9"
     inkscape:window-maximized="1"
     inkscape:current-layer="g10474" />
  <defs
     id="defs9823">
    <style
       id="style9812">&#10;      .cls-1 {&#10;        fill: url(#linear-gradient);&#10;      }&#10;&#10;      .cls-2 {&#10;        fill: #fff;&#10;      }&#10;&#10;      .cls-3 {&#10;        fill: #0ab798;&#10;      }&#10;    </style>
  </defs>
  <g
     id="g10514"
     transform="translate(-12.65,-12.530711)">
    <g
       id="g10474"
       style="fill:#19ab86;fill-opacity:0.733333"
       inkscape:label="g10474">
      <path
         d="m 24.7,29.79 c -1.77,0 -3.21,-1.44 -3.21,-3.21 0,-1.77 1.44,-3.21 3.21,-3.21 h 13.26 c 1.77,0 3.21,1.44 3.21,3.21 0,1.77 -1.44,3.21 -3.21,3.21 z"
         id="path10023"
         style="fill:#19ab86;fill-opacity:0.733333"
         inkscape:export-filename="..\Desktop\nf-schema.png"
         inkscape:export-xdpi="96"
         inkscape:export-ydpi="96" />
      <path
         d="m 24.71,38.63 c -1.77,0 -3.21,-1.44 -3.21,-3.21 0,-1.77 1.44,-3.21 3.21,-3.21 h 5.89 c 1.77,0 3.21,1.44 3.21,3.21 0,1.77 -1.44,3.21 -3.21,3.21 z"
         id="path10019"
         style="fill:#19ab86;fill-opacity:0.733333" />
      <path
         d="m 18.81,58.740711 c -3.4,0 -6.16,-2.76 -6.16,-6.16 v -33.89 c 0,-3.4 2.76,-6.16 6.16,-6.16 h 25.05 c 3.4,0 6.154028,2.760006 6.16,6.16 l 0.02324,13.23016 c 0.0031,1.769997 -1.44,3.21 -3.21,3.21 -1.77,0 -3.206828,-1.440003 -3.21,-3.21 L 43.6,18.950711 H 19.08 v 33.37 h 9.08 c 1.77,0 3.21,1.44 3.21,3.21 0,1.77 -1.44,3.21 -3.21,3.21 h -9.34 z"
         id="path9993"
         sodipodi:nodetypes="ssssssssscccssscs"
         style="fill:#19ab86;fill-opacity:0.733333" />
      <path
         d="m 43.598444,58.740711 c -0.86,0 -1.67,-0.34 -2.28,-0.95 l -5.74,-5.76 c -0.6,-0.64 -0.9,-1.46 -0.87,-2.32 0.03,-0.86 0.4,-1.65 1.02,-2.23 0.6,-0.55 0.89396,-0.780661 1.70396,-0.780661 0.81,0 1.52066,0.706698 2.13066,1.276698 l 3.5,3.51 12.82613,-23.594326 c 0.6,-0.59 1.4,-0.91 2.24,-0.91 0.84,0 1.69,0.34 2.3,0.97 0.6,0.62 0.92,1.43 0.91,2.28 -0.01,0.86 -0.35,1.66 -0.97,2.26 l -14.54075,25.328289 c -0.6,0.59 -1.4,0.91 -2.24,0.91 z"
         id="path9827-4-3"
         sodipodi:nodetypes="cccscscccscccccc"
         style="fill:#19ab86;fill-opacity:0.733333" />
      <text
         xml:space="preserve"
         style="font-size:42.6667px;fill:#19aa86;fill-opacity:0.733333"
         x="65.97538"
         y="50.042561"
         id="text1"><tspan
           sodipodi:role="line"
           id="tspan1"
           x="65.97538"
           y="50.042561"
           style="font-style:normal;font-variant:normal;font-weight:bold;font-stretch:normal;font-size:42.6667px;font-family:'Maven Pro';-inkscape-font-specification:'Maven Pro Bold';fill:#19aa86;fill-opacity:0.733333">nf-schema</tspan></text>
    </g>
  </g>
</svg>
